<svg xmlns="http://www.w3.org/2000/svg" xmlns:xlink="http://www.w3.org/1999/xlink" id="SvgjsSvg1026" width="288" height="288" xmlns="http://www.w3.org/2000/svg" version="1.1" xmlns:xlink="http://www.w3.org/1999/xlink" xmlns:svgjs="http://svgjs.com/svgjs"><defs id="SvgjsDefs1027"></defs><g id="SvgjsG1028"><svg xmlns="http://www.w3.org/2000/svg" viewBox="0 0 24 24" width="288" height="288"><path d="M20.6 5.7c0-.2-.1-.3-.2-.4L12.3.6c-.1-.1-.3-.1-.5 0L3.6 5.3c-.1.1-.2.2-.2.4s.1.3.2.4l8.1 4.7c.1 0 .2.1.2.1s.2 0 .2-.1l8.1-4.7c.3-.1.4-.3.4-.4zM10.6 13.2 2.5 8.5c-.2-.1-.4-.1-.5 0-.1.1-.2.3-.2.4v9.4c0 .2.1.3.2.4l8.1 4.7c.1 0 .2.1.2.1s.2 0 .2-.1c.1-.1.2-.2.2-.4v-9.4c.2-.2.1-.3-.1-.4zM22 8.5c-.1-.1-.3-.1-.5 0l-8.1 4.7c-.1.1-.2.2-.2.4V23c0 .2.1.3.2.4.1 0 .2.1.2.1s.2 0 .2-.1l8.1-4.7c.1-.1.2-.2.2-.4V8.9c.1-.1 0-.3-.1-.4z" fill="#a4afb4" class="color000 svgShape"></path></svg></g></svg>